<mxfile host="app.diagrams.net" modified="2023-05-15T12:25:38.202Z" agent="Mozilla/5.0 (Macintosh; Intel Mac OS X 10_15_7) AppleWebKit/537.36 (KHTML, like Gecko) Chrome/109.0.0.0 Safari/537.36" etag="eKYu19qWXneAFnjc3yx3" version="21.2.9" type="github">
  <diagram id="rYdwiMb5jvszhZctyrXV" name="第 1 页">
    <mxGraphModel dx="395" dy="1273" grid="0" gridSize="10" guides="1" tooltips="1" connect="1" arrows="1" fold="1" page="0" pageScale="1" pageWidth="1920" pageHeight="1200" math="0" shadow="0">
      <root>
        <mxCell id="0" />
        <mxCell id="1" parent="0" />
        <mxCell id="UXaWH8541CflgYRBNMMw-24" value="" style="rounded=1;whiteSpace=wrap;html=1;fillColor=#fff2cc;strokeColor=#d6b656;" vertex="1" parent="1">
          <mxGeometry x="585" y="-534" width="612" height="581" as="geometry" />
        </mxCell>
        <mxCell id="UXaWH8541CflgYRBNMMw-14" value="" style="rounded=1;whiteSpace=wrap;html=1;fillColor=#e1d5e7;strokeColor=#9673a6;" vertex="1" parent="1">
          <mxGeometry x="921.5" y="-446" width="235.5" height="312" as="geometry" />
        </mxCell>
        <mxCell id="UXaWH8541CflgYRBNMMw-13" value="" style="rounded=1;whiteSpace=wrap;html=1;fillColor=#e1d5e7;strokeColor=#9673a6;" vertex="1" parent="1">
          <mxGeometry x="638" y="-443" width="229" height="312" as="geometry" />
        </mxCell>
        <mxCell id="UXaWH8541CflgYRBNMMw-32" style="edgeStyle=orthogonalEdgeStyle;rounded=0;orthogonalLoop=1;jettySize=auto;html=1;exitX=0;exitY=0.5;exitDx=0;exitDy=0;entryX=0.5;entryY=1;entryDx=0;entryDy=0;dashed=1;" edge="1" parent="1" target="UXaWH8541CflgYRBNMMw-28">
          <mxGeometry relative="1" as="geometry">
            <mxPoint x="667" y="-340" as="sourcePoint" />
            <mxPoint x="783.5" y="-50.99999999999977" as="targetPoint" />
            <Array as="points">
              <mxPoint x="625" y="-340" />
              <mxPoint x="625" y="-31" />
              <mxPoint x="811" y="-31" />
              <mxPoint x="811" y="-42" />
              <mxPoint x="811" y="-42" />
            </Array>
          </mxGeometry>
        </mxCell>
        <mxCell id="UXaWH8541CflgYRBNMMw-2" value="ingressgateway&lt;br&gt;（envoy）" style="rounded=1;whiteSpace=wrap;html=1;fillColor=#dae8fc;strokeColor=#6c8ebf;" vertex="1" parent="1">
          <mxGeometry x="672" y="-370" width="120" height="60" as="geometry" />
        </mxCell>
        <mxCell id="UXaWH8541CflgYRBNMMw-4" style="edgeStyle=orthogonalEdgeStyle;rounded=0;orthogonalLoop=1;jettySize=auto;html=1;exitX=0.5;exitY=0;exitDx=0;exitDy=0;entryX=0.5;entryY=1;entryDx=0;entryDy=0;dashed=1;" edge="1" parent="1" source="UXaWH8541CflgYRBNMMw-3" target="UXaWH8541CflgYRBNMMw-2">
          <mxGeometry relative="1" as="geometry" />
        </mxCell>
        <mxCell id="UXaWH8541CflgYRBNMMw-6" value="health check" style="edgeLabel;html=1;align=center;verticalAlign=middle;resizable=0;points=[];" vertex="1" connectable="0" parent="UXaWH8541CflgYRBNMMw-4">
          <mxGeometry x="0.0665" relative="1" as="geometry">
            <mxPoint as="offset" />
          </mxGeometry>
        </mxCell>
        <mxCell id="UXaWH8541CflgYRBNMMw-11" style="edgeStyle=orthogonalEdgeStyle;rounded=0;orthogonalLoop=1;jettySize=auto;html=1;exitX=1;exitY=0.5;exitDx=0;exitDy=0;entryX=0;entryY=0.5;entryDx=0;entryDy=0;dashed=1;" edge="1" parent="1" source="UXaWH8541CflgYRBNMMw-3" target="UXaWH8541CflgYRBNMMw-10">
          <mxGeometry relative="1" as="geometry" />
        </mxCell>
        <mxCell id="UXaWH8541CflgYRBNMMw-3" value="keepalived&lt;br&gt;（master）" style="rounded=1;whiteSpace=wrap;html=1;fillColor=#dae8fc;strokeColor=#6c8ebf;" vertex="1" parent="1">
          <mxGeometry x="672" y="-227" width="120" height="60" as="geometry" />
        </mxCell>
        <mxCell id="UXaWH8541CflgYRBNMMw-7" value="ingressgateway&lt;br&gt;（envoy）" style="rounded=1;whiteSpace=wrap;html=1;fillColor=#dae8fc;strokeColor=#6c8ebf;" vertex="1" parent="1">
          <mxGeometry x="967" y="-369" width="120" height="60" as="geometry" />
        </mxCell>
        <mxCell id="UXaWH8541CflgYRBNMMw-8" style="edgeStyle=orthogonalEdgeStyle;rounded=0;orthogonalLoop=1;jettySize=auto;html=1;exitX=0.5;exitY=0;exitDx=0;exitDy=0;entryX=0.5;entryY=1;entryDx=0;entryDy=0;dashed=1;" edge="1" parent="1" source="UXaWH8541CflgYRBNMMw-10" target="UXaWH8541CflgYRBNMMw-7">
          <mxGeometry relative="1" as="geometry" />
        </mxCell>
        <mxCell id="UXaWH8541CflgYRBNMMw-9" value="health check" style="edgeLabel;html=1;align=center;verticalAlign=middle;resizable=0;points=[];" vertex="1" connectable="0" parent="UXaWH8541CflgYRBNMMw-8">
          <mxGeometry x="0.0665" relative="1" as="geometry">
            <mxPoint as="offset" />
          </mxGeometry>
        </mxCell>
        <mxCell id="UXaWH8541CflgYRBNMMw-69" value="" style="edgeStyle=orthogonalEdgeStyle;rounded=0;orthogonalLoop=1;jettySize=auto;html=1;" edge="1" parent="1" source="UXaWH8541CflgYRBNMMw-10" target="UXaWH8541CflgYRBNMMw-7">
          <mxGeometry relative="1" as="geometry" />
        </mxCell>
        <mxCell id="UXaWH8541CflgYRBNMMw-10" value="keepalived&lt;br&gt;（backup）" style="rounded=1;whiteSpace=wrap;html=1;fillColor=#dae8fc;strokeColor=#6c8ebf;" vertex="1" parent="1">
          <mxGeometry x="967" y="-226" width="120" height="60" as="geometry" />
        </mxCell>
        <mxCell id="UXaWH8541CflgYRBNMMw-12" value="comm by VRRP" style="text;html=1;strokeColor=none;fillColor=none;align=center;verticalAlign=middle;whiteSpace=wrap;rounded=0;" vertex="1" parent="1">
          <mxGeometry x="864" y="-227" width="60" height="30" as="geometry" />
        </mxCell>
        <mxCell id="UXaWH8541CflgYRBNMMw-15" value="node2" style="text;html=1;strokeColor=none;fillColor=none;align=center;verticalAlign=middle;whiteSpace=wrap;rounded=0;" vertex="1" parent="1">
          <mxGeometry x="782" y="-440" width="41" height="14" as="geometry" />
        </mxCell>
        <mxCell id="UXaWH8541CflgYRBNMMw-16" value="node3" style="text;html=1;strokeColor=none;fillColor=none;align=center;verticalAlign=middle;whiteSpace=wrap;rounded=0;" vertex="1" parent="1">
          <mxGeometry x="1091" y="-443" width="44" height="19" as="geometry" />
        </mxCell>
        <mxCell id="UXaWH8541CflgYRBNMMw-21" value="" style="endArrow=classic;html=1;rounded=0;exitX=0.5;exitY=1;exitDx=0;exitDy=0;dashed=1;" edge="1" parent="1" source="UXaWH8541CflgYRBNMMw-3">
          <mxGeometry width="50" height="50" relative="1" as="geometry">
            <mxPoint x="709" y="-125" as="sourcePoint" />
            <mxPoint x="732" y="-130" as="targetPoint" />
          </mxGeometry>
        </mxCell>
        <mxCell id="UXaWH8541CflgYRBNMMw-23" value="bind VIP to node" style="text;html=1;strokeColor=none;fillColor=none;align=center;verticalAlign=middle;whiteSpace=wrap;rounded=0;" vertex="1" parent="1">
          <mxGeometry x="740" y="-162" width="53" height="26" as="geometry" />
        </mxCell>
        <mxCell id="UXaWH8541CflgYRBNMMw-25" value="K8s" style="text;html=1;strokeColor=none;fillColor=none;align=center;verticalAlign=middle;whiteSpace=wrap;rounded=0;" vertex="1" parent="1">
          <mxGeometry x="1002" y="-484" width="60" height="30" as="geometry" />
        </mxCell>
        <mxCell id="UXaWH8541CflgYRBNMMw-27" style="edgeStyle=orthogonalEdgeStyle;rounded=0;orthogonalLoop=1;jettySize=auto;html=1;exitX=0.5;exitY=1;exitDx=0;exitDy=0;entryX=0.5;entryY=0;entryDx=0;entryDy=0;dashed=1;" edge="1" parent="1" source="UXaWH8541CflgYRBNMMw-26" target="UXaWH8541CflgYRBNMMw-2">
          <mxGeometry relative="1" as="geometry" />
        </mxCell>
        <mxCell id="UXaWH8541CflgYRBNMMw-37" style="edgeStyle=orthogonalEdgeStyle;rounded=0;orthogonalLoop=1;jettySize=auto;html=1;exitX=0.5;exitY=1;exitDx=0;exitDy=0;entryX=0.5;entryY=0;entryDx=0;entryDy=0;dashed=1;" edge="1" parent="1" source="UXaWH8541CflgYRBNMMw-26" target="UXaWH8541CflgYRBNMMw-36">
          <mxGeometry relative="1" as="geometry" />
        </mxCell>
        <mxCell id="UXaWH8541CflgYRBNMMw-26" value="Client" style="rounded=1;whiteSpace=wrap;html=1;fillColor=#dae8fc;strokeColor=#6c8ebf;" vertex="1" parent="1">
          <mxGeometry x="773.5" y="-648" width="120" height="60" as="geometry" />
        </mxCell>
        <mxCell id="UXaWH8541CflgYRBNMMw-28" value="Pod" style="ellipse;whiteSpace=wrap;html=1;aspect=fixed;fillColor=#dae8fc;strokeColor=#6c8ebf;" vertex="1" parent="1">
          <mxGeometry x="782" y="-108" width="57" height="57" as="geometry" />
        </mxCell>
        <mxCell id="UXaWH8541CflgYRBNMMw-30" value="Pod" style="ellipse;whiteSpace=wrap;html=1;aspect=fixed;fillColor=#dae8fc;strokeColor=#6c8ebf;" vertex="1" parent="1">
          <mxGeometry x="923" y="-108" width="57" height="57" as="geometry" />
        </mxCell>
        <mxCell id="UXaWH8541CflgYRBNMMw-40" style="edgeStyle=orthogonalEdgeStyle;rounded=0;orthogonalLoop=1;jettySize=auto;html=1;exitX=0;exitY=0.5;exitDx=0;exitDy=0;entryX=0.5;entryY=1;entryDx=0;entryDy=0;dashed=1;" edge="1" parent="1" source="UXaWH8541CflgYRBNMMw-36" target="UXaWH8541CflgYRBNMMw-30">
          <mxGeometry relative="1" as="geometry">
            <mxPoint x="624" y="-401.5" as="sourcePoint" />
            <mxPoint x="929.5" y="-50.99999999999977" as="targetPoint" />
            <Array as="points">
              <mxPoint x="605" y="-401" />
              <mxPoint x="605" y="-16" />
              <mxPoint x="952" y="-16" />
            </Array>
          </mxGeometry>
        </mxCell>
        <mxCell id="UXaWH8541CflgYRBNMMw-36" value="iptables" style="text;html=1;strokeColor=#2D7600;fillColor=#60a917;align=center;verticalAlign=middle;whiteSpace=wrap;rounded=0;fontColor=#ffffff;" vertex="1" parent="1">
          <mxGeometry x="646" y="-415" width="50" height="27" as="geometry" />
        </mxCell>
        <mxCell id="UXaWH8541CflgYRBNMMw-46" value="iptables" style="text;html=1;strokeColor=#2D7600;fillColor=#60a917;align=center;verticalAlign=middle;whiteSpace=wrap;rounded=0;fontColor=#ffffff;" vertex="1" parent="1">
          <mxGeometry x="930" y="-416" width="50" height="27" as="geometry" />
        </mxCell>
        <mxCell id="UXaWH8541CflgYRBNMMw-48" value="connect by iptables" style="text;html=1;strokeColor=none;fillColor=none;align=center;verticalAlign=middle;whiteSpace=wrap;rounded=0;" vertex="1" parent="1">
          <mxGeometry x="775" y="-10" width="60" height="30" as="geometry" />
        </mxCell>
        <mxCell id="UXaWH8541CflgYRBNMMw-49" value="connect by envoy" style="text;html=1;strokeColor=none;fillColor=none;align=center;verticalAlign=middle;whiteSpace=wrap;rounded=0;" vertex="1" parent="1">
          <mxGeometry x="696" y="-66" width="60" height="30" as="geometry" />
        </mxCell>
        <mxCell id="UXaWH8541CflgYRBNMMw-50" value="connect by VIP" style="text;html=1;strokeColor=none;fillColor=none;align=center;verticalAlign=middle;whiteSpace=wrap;rounded=0;" vertex="1" parent="1">
          <mxGeometry x="835" y="-577" width="49" height="22" as="geometry" />
        </mxCell>
        <mxCell id="UXaWH8541CflgYRBNMMw-74" style="edgeStyle=orthogonalEdgeStyle;rounded=0;orthogonalLoop=1;jettySize=auto;html=1;exitX=0;exitY=0.5;exitDx=0;exitDy=0;entryX=1;entryY=0.5;entryDx=0;entryDy=0;dashed=1;" edge="1" parent="1" source="UXaWH8541CflgYRBNMMw-51" target="UXaWH8541CflgYRBNMMw-56">
          <mxGeometry relative="1" as="geometry">
            <Array as="points">
              <mxPoint x="901" y="-500" />
              <mxPoint x="901" y="-402" />
            </Array>
          </mxGeometry>
        </mxCell>
        <mxCell id="UXaWH8541CflgYRBNMMw-75" style="edgeStyle=orthogonalEdgeStyle;rounded=0;orthogonalLoop=1;jettySize=auto;html=1;exitX=0;exitY=0.5;exitDx=0;exitDy=0;entryX=1;entryY=0.5;entryDx=0;entryDy=0;dashed=1;" edge="1" parent="1" source="UXaWH8541CflgYRBNMMw-51" target="UXaWH8541CflgYRBNMMw-2">
          <mxGeometry relative="1" as="geometry">
            <Array as="points">
              <mxPoint x="901" y="-500" />
              <mxPoint x="901" y="-340" />
            </Array>
          </mxGeometry>
        </mxCell>
        <mxCell id="UXaWH8541CflgYRBNMMw-51" value="service" style="rounded=1;whiteSpace=wrap;html=1;fillColor=#1ba1e2;fontColor=#ffffff;strokeColor=#006EAF;" vertex="1" parent="1">
          <mxGeometry x="930" y="-520" width="77" height="39" as="geometry" />
        </mxCell>
        <mxCell id="UXaWH8541CflgYRBNMMw-55" value="get &lt;br&gt;endpoints&lt;br&gt;from svc&lt;br&gt;&amp;nbsp;" style="text;html=1;strokeColor=none;fillColor=none;align=center;verticalAlign=middle;whiteSpace=wrap;rounded=0;" vertex="1" parent="1">
          <mxGeometry x="851" y="-458" width="46" height="9" as="geometry" />
        </mxCell>
        <mxCell id="UXaWH8541CflgYRBNMMw-58" style="edgeStyle=orthogonalEdgeStyle;rounded=0;orthogonalLoop=1;jettySize=auto;html=1;exitX=0;exitY=0.5;exitDx=0;exitDy=0;entryX=1;entryY=0.5;entryDx=0;entryDy=0;dashed=1;" edge="1" parent="1" source="UXaWH8541CflgYRBNMMw-56" target="UXaWH8541CflgYRBNMMw-36">
          <mxGeometry relative="1" as="geometry" />
        </mxCell>
        <mxCell id="UXaWH8541CflgYRBNMMw-56" value="kube-proxy" style="text;html=1;strokeColor=#2D7600;fillColor=#60a917;align=center;verticalAlign=middle;whiteSpace=wrap;rounded=0;fontColor=#ffffff;" vertex="1" parent="1">
          <mxGeometry x="808" y="-415" width="50" height="27" as="geometry" />
        </mxCell>
        <mxCell id="UXaWH8541CflgYRBNMMw-61" value="deploy&lt;br&gt;iptables" style="text;html=1;strokeColor=none;fillColor=none;align=center;verticalAlign=middle;whiteSpace=wrap;rounded=0;" vertex="1" parent="1">
          <mxGeometry x="765" y="-408.5" width="36" height="14" as="geometry" />
        </mxCell>
        <mxCell id="UXaWH8541CflgYRBNMMw-67" value="kube-proxy" style="text;html=1;strokeColor=#2D7600;fillColor=#60a917;align=center;verticalAlign=middle;whiteSpace=wrap;rounded=0;fontColor=#ffffff;" vertex="1" parent="1">
          <mxGeometry x="1103" y="-416.5" width="50" height="27" as="geometry" />
        </mxCell>
        <mxCell id="UXaWH8541CflgYRBNMMw-77" value="" style="edgeStyle=orthogonalEdgeStyle;rounded=0;orthogonalLoop=1;jettySize=auto;html=1;dashed=1;exitX=0;exitY=0.5;exitDx=0;exitDy=0;" edge="1" parent="1" source="UXaWH8541CflgYRBNMMw-67" target="UXaWH8541CflgYRBNMMw-46">
          <mxGeometry relative="1" as="geometry">
            <mxPoint x="1051" y="-395" as="sourcePoint" />
          </mxGeometry>
        </mxCell>
        <mxCell id="UXaWH8541CflgYRBNMMw-78" value="deploy&lt;br&gt;iptables" style="text;html=1;strokeColor=none;fillColor=none;align=center;verticalAlign=middle;whiteSpace=wrap;rounded=0;" vertex="1" parent="1">
          <mxGeometry x="1059" y="-420" width="36" height="34" as="geometry" />
        </mxCell>
      </root>
    </mxGraphModel>
  </diagram>
</mxfile>
